<svg id="Слой_3" data-name="Слой 3" xmlns="http://www.w3.org/2000/svg" viewBox="0 0 500 500"><defs><style>.cls-1,.cls-3,.cls-4{fill:none;}.cls-1{stroke:#6a8ed8;stroke-miterlimit:10;}.cls-1,.cls-3,.cls-4,.cls-5,.cls-8{stroke-linecap:round;}.cls-1,.cls-3,.cls-5,.cls-8{stroke-width:2.24px;}.cls-2,.cls-5{fill:#fff;}.cls-3,.cls-4,.cls-5,.cls-8{stroke:#220676;stroke-linejoin:round;}.cls-4{stroke-width:1.92px;}.cls-6,.cls-8{fill:#0046e6;}.cls-7{fill:#ff7922;}</style></defs><path class="cls-1" d="M304.61,278.14l-1-5.5a3.76,3.76,0,0,1,3-4.38l26.52-4.87a3.76,3.76,0,0,1,4.36,3c.39,2,.79,3.93,1.18,5.89"/><path class="cls-1" d="M309.56,277.38l-.71-3.87a1.57,1.57,0,0,1,1.44-1.65l20.7-3.81a1.58,1.58,0,0,1,1.93,1c.27,1.36.55,2.72.82,4.07"/><path class="cls-2" d="M307,277a21.27,21.27,0,0,1-2.58-3.92,8.79,8.79,0,0,1-1.27-3.7,5.31,5.31,0,0,1,.9-3.81,5.12,5.12,0,0,1,3.59-1.83l10-2.29a14.81,14.81,0,0,1,3.44.17,17,17,0,0,1,4.79,1.73c4.69,2.61,7.15,8.09,7.54,9Z"/><path class="cls-3" d="M309,257.22a6.53,6.53,0,0,0,.15,3.26,6.45,6.45,0,0,0,.95,1.87"/><path class="cls-3" d="M333.71,272.68c-.49-1.19-4-9.28-11.82-11.26-4.05-1-7.65,0-11.59,1.1-3.63,1-5.94,1.67-7,3.63-1.51,2.84.27,7.34,4.07,11.28"/><path class="cls-4" d="M304.94,264.81a37.23,37.23,0,0,0,2.39,4.26,37.83,37.83,0,0,0,4.72,5.89"/><path class="cls-4" d="M310.91,262.92a38.34,38.34,0,0,0,2,4.44,37.59,37.59,0,0,0,4.24,6.24"/><path class="cls-4" d="M317.42,261.37a37.08,37.08,0,0,0,1.83,4.53,38.25,38.25,0,0,0,3.93,6.44"/><rect class="cls-1" x="273.77" y="274.8" width="108.22" height="69.41" rx="4.56" transform="translate(-50.55 64.38) rotate(-10.42)"/><rect class="cls-1" x="273.99" y="277.13" width="82.43" height="69.41" rx="4.56" transform="translate(-51.18 62.13) rotate(-10.42)"/><rect class="cls-1" x="273.86" y="275.8" width="97.18" height="69.41" rx="4.56" transform="translate(-50.82 63.42) rotate(-10.42)"/><path class="cls-5" d="M318.68,252.3a16.48,16.48,0,0,0,2.09,3.79,18.51,18.51,0,0,0,10.69,6.74c-.38,1.55-.75,3.1-1.13,4.65a6.55,6.55,0,0,0-3.36.91c-1.81,1.08-3.52,3.36-2.94,4.54s3.42.86,9.14.27c3.94-.41,4.48-.76,4.81-1,1-.8,1.43-1.9,2.24-9.25.59-5.3.51-6,.32-6.84a14.24,14.24,0,0,0-4.06-6.68,23.61,23.61,0,0,0-8.87-5.88"/><path class="cls-3" d="M131.21,464.26a108.83,108.83,0,0,1,18-35.69l26.1,10.74c-.27,6.48,1.94,10.28,3.07,11.9,3,4.33,7.66,6.23,13.05,8.44,6.85,2.81,8.59,2,11.13,4.22,2.35,2.1,4.81,6.37,3.83,16.12a75.94,75.94,0,0,1-8.44,1.92c-17.1,2.88-32-.57-42.21-4.22A8.4,8.4,0,0,0,140,471.93Z"/><path class="cls-3" d="M134.47,456.39a65.46,65.46,0,0,0,10,7.67c12.46,7.81,24.26,9.48,31.08,10.37A89.54,89.54,0,0,0,206,473.08"/><path class="cls-3" d="M166.32,436.05a25.78,25.78,0,0,0,0,13.05c.73,2.71,2.84,10.57,10.36,14.2,9,4.33,18.1-1.1,18.81-1.54"/><path class="cls-3" d="M176.68,449.48a5.18,5.18,0,0,1,3.46-4.22c2.56-.76,5.29,1.05,6.14,3.45a5.53,5.53,0,0,1-1.54,5.76c-1.1,1-2.77,1.54-3.07,1.15s.62-1.93,1.92-2.68c1.91-1.11,5.42-1,6.91,1.53a4.89,4.89,0,0,1-.39,5.37,5.31,5.31,0,0,1-4.6,1.92"/><path class="cls-3" d="M293.92,452.36a79,79,0,0,0,7.29,21.87V485H318.1c0-.2-.76-4.07,1.91-6.52s6.7-1.89,9.21,0a8.32,8.32,0,0,1,3.07,6.14h40.3a17.72,17.72,0,0,0,.38-8.45c-.3-1.5-1.79-7.73-6.9-10.36a12.15,12.15,0,0,0-4.23-1.15,84.52,84.52,0,0,1-18.42-5.37,39.45,39.45,0,0,1-11.89-8.06Z"/><path class="cls-3" d="M301.21,474.23l71.38.39"/><path class="cls-3" d="M320,451.59a23.75,23.75,0,0,0,6.91,8.44c11,8.32,25.39,3.24,26.87,2.69"/><path class="cls-3" d="M332.64,454.11a5.19,5.19,0,0,1,1.25-5.31c2-1.81,5.22-1.37,7,.41a5.5,5.5,0,0,1,1.15,5.85c-.55,1.37-1.81,2.6-2.25,2.38s-.29-2,.54-3.26c1.23-1.83,4.45-3.24,6.88-1.65a4.9,4.9,0,0,1,2,5,5.33,5.33,0,0,1-3.3,3.74"/><path class="cls-6" d="M138.88,426.26a91.39,91.39,0,0,0,41.83,20q11.73-19.5,23.41-39.91,19.53-34.12,36.84-67.16c8.42,18.19,16.8,37.51,25,58,8.35,20.94,15.72,41.2,22.25,60.63a174.84,174.84,0,0,0,50.66-4.22c-4.46-12.36-11.47-31.92-20-56-15.49-44-23.4-66.54-31.46-92.48-6.11-19.66-14.48-48.22-23-83.66l-64.09.77a69.19,69.19,0,0,0-5,18.42,70.77,70.77,0,0,0,3.84,33,209,209,0,0,1-13,64.47c-1.92,5.13-4,10-6.14,14.58Q159.42,389.42,138.88,426.26Z"/><path class="cls-3" d="M196.06,236.31a48.54,48.54,0,0,0,2.69,21.1A49.84,49.84,0,0,0,218.7,282q14.09,35.82,28.79,71.38,8.89,21.54,18,43"/><path class="cls-2" d="M124.3,238.22l21.87,5L145,249a24.85,24.85,0,0,1,2.88,6.33,26.71,26.71,0,0,1-.38,15.74,29,29,0,0,1,1.53,7.67,26.43,26.43,0,0,1,0,3.45,9.72,9.72,0,0,1-2.68-1.15c-5.36-3.3-5.72-10.68-5.76-11.89l-1.92.76c-1.31,2.81-2.61,5.88-3.84,9.21A115.06,115.06,0,0,0,131,291.76l-2.69,1.53-3.07-1.92a3.58,3.58,0,0,1-3.07,2.69,3.74,3.74,0,0,1-3.45-4.22,3.06,3.06,0,0,1-2.69.38c-2-.84-2.54-5.12-1.15-10.74a2.55,2.55,0,0,1-2.3,1.92c-1.1,0-1.72-1.18-1.92-1.54a4.5,4.5,0,0,1,0-3.84,167.35,167.35,0,0,1,5.75-19.57A165.5,165.5,0,0,1,124.3,238.22Z"/><path class="cls-3" d="M123.34,237.65c-1,2.32-2.55,5.76-4.22,10-3.05,7.7-12.47,31.51-8.06,34.15.5.3,1.38.45,3.07-.38"/><path class="cls-3" d="M147.52,241.87c-.51,2.3-1,4.6-1.54,6.91a27.14,27.14,0,0,1,2.69,6.52,28.79,28.79,0,0,1-.39,15.74c2,7.6,2,10.88.77,11.51-1.56.79-4.78-2.84-5-3.07-3.76-4.3-3.61-9.84-3.45-11.9A62.69,62.69,0,0,0,135,280.05c-2,6.39-3,13.21-6.14,13.82a1.5,1.5,0,0,1-.76,0c-2.62-.78-2.14-9.75-1.54-14.2a43,43,0,0,1,3.46-11.9"/><path class="cls-3" d="M125.83,291.18c-.55.9-2.45,3.8-4.22,3.46a1.61,1.61,0,0,1-.76-.39c-2-1.66-2.7-10,.76-21.87.72-2.46,1.43-4.45,1.92-5.76"/><path class="cls-3" d="M118.93,265.85a61.34,61.34,0,0,0-3.07,8.06c-1.63,5.4-2,9.2-1.54,12.67.49,4.07,1.61,4.51,1.92,4.6,1,.3,2.14-.63,2.69-1.15"/><path class="cls-2" d="M224.91,91.27l-1.45-20.21a8.82,8.82,0,0,1-4.75-.83c-3.88-1.93-5.44-6.6-5.17-10.21a10.87,10.87,0,0,1,1-3.75,20.24,20.24,0,0,1-3-6.16,21.17,21.17,0,0,1-.29-10.42,22.12,22.12,0,0,1,6.12-10.88,23.06,23.06,0,0,1,9.25-5.7,22.27,22.27,0,0,1,11.54-.46,21.14,21.14,0,0,1,5.34-.88A20.22,20.22,0,0,1,253.79,24,20.82,20.82,0,0,1,262,32.15c5.25,9.86-.69,20.66-1.17,21.5A63.37,63.37,0,0,1,261,65.83c-.52,6.39-.92,10.5-3.94,14a15,15,0,0,1-6.73,4.31c.06,2.64.11,5.29.17,7.94Z"/><path class="cls-7" d="M121,237.26a240.7,240.7,0,0,1,16.12-56c7.27-17.11,22-50.68,54.87-75.6C205.42,95.48,214,92.71,217,91.82c17.92-5.3,43.2-4,59.09,11.51,6.08,5.92,8.86,12.48,14.43,25.6a191.3,191.3,0,0,1,12.41,42.2q8.83,18.15,17.73,36.29,8.36,17,16.79,34l-29.56,18.68c-2.76-3.57-5.53-7.35-8.27-11.35a246.63,246.63,0,0,1-18.92-32.63l.38,25.71-16.88,7.34L253,233.07l-11,19.86a273.84,273.84,0,0,1-38.18-10.05c-5.42-1.85-10.57-3.8-15.46-5.81l4.41-71.57a217.36,217.36,0,0,0-39.91,77.9A43.23,43.23,0,0,1,121,237.26Z"/><path class="cls-3" d="M162.29,216.73a186.19,186.19,0,0,1,29.93-49.5,26.37,26.37,0,0,0,7.68-10c2-4.75,2.93-10.92,1.53-11.51s-5,4.17-6.9,8.44a27.43,27.43,0,0,0-2.31,13q-1.29,17.94-2.3,36.46-.91,16.91-1.53,33.38"/><path class="cls-3" d="M264.18,249.21l17.08-7.53q0-14.56-.39-29.55c-.61-25.85-1.94-50.81-3.84-74.83"/><path class="cls-3" d="M224.17,87.78,217,90a45.47,45.47,0,0,0-5.32,26.47L226,110.6l-7.09,14.19c4,3.42,8.16,7,12.29,10.87a343.09,343.09,0,0,1,28.44,29.79"/><path class="cls-3" d="M262,156.35a225.7,225.7,0,0,0-9-21.87A224.25,224.25,0,0,0,237.51,107"/><path class="cls-3" d="M250.8,90.4a104.71,104.71,0,0,1,10.26,26.23,92.07,92.07,0,0,1,.95,39.72,86.85,86.85,0,0,1-5.91,18.09q-1.55,28.67-3.08,57.33l-11,21.16c-3.54-.37-7.34-.94-11.35-1.77a116.83,116.83,0,0,1-21-6.5"/><path class="cls-3" d="M250.61,86.13a42,42,0,0,1,4.23.71,40.69,40.69,0,0,1,6.44,2q1.55,1.8,3.09,3.67c3.49,4.22,6.71,8.41,9.69,12.53l-9-.71,13.83,12.06a71.54,71.54,0,0,1-1.77,22,74.51,74.51,0,0,1-21,36.06"/><path class="cls-8" d="M244.43,100.63a5.56,5.56,0,0,0-2.91,5.92,5.74,5.74,0,0,0,7.09,4.41,5.62,5.62,0,0,0,3.7-6.46A5.83,5.83,0,0,0,244.43,100.63Z"/><path class="cls-8" d="M251.84,108.89a6.42,6.42,0,0,1-3.23,2.07,6.3,6.3,0,0,1-2.4.15c.34,2,.64,4.15.84,6.47.19,2,.28,4,.31,5.78,2.2,3.68,4.42,7.72,6.55,12.13a157.1,157.1,0,0,1,8,19.8,76.31,76.31,0,0,0,1.52-8.85,78.49,78.49,0,0,0-1.69-26.88Z"/><path class="cls-3" d="M224.89,58.47a7.44,7.44,0,0,0-4.81-4.09c-.28-.07-3.22-.72-5,.86-3.45,3-1.67,13,3.78,15.45a7.48,7.48,0,0,0,4.2.46q.81,11.63,1.61,23.27c2.4,2,4.91,4.24,7.47,6.79,2,2,3.77,3.9,5.41,5.77"/><path class="cls-3" d="M251.32,102.76q-.37-9-.76-18"/><path class="cls-3" d="M235.59,82.8a18.28,18.28,0,0,0,10,2.69,20.35,20.35,0,0,0,8.82-2.69c6.95-4.18,9.52-19.9,5-38.76"/><path class="cls-4" d="M243.65,73.59a14.37,14.37,0,0,0,11.89-1.15"/><path class="cls-4" d="M247.87,66.3l5.37-1.15L249.4,53.64"/><path class="cls-3" d="M245.06,37.43A18.26,18.26,0,0,1,243.17,49c-3.39,6.12-10.49,9.74-18.28,9.45"/><path class="cls-3" d="M214.06,56.53a22.94,22.94,0,0,1-3.75-14.21c.92-11.74,11-17.57,11.58-17.89a23.56,23.56,0,0,1,24.91,1.65"/><path class="cls-3" d="M237.5,22a22.5,22.5,0,0,1,7.48-.92,22.83,22.83,0,0,1,12.46,4.41c6.79,5.28,8.95,17.64,3.87,29.78"/><path class="cls-3" d="M245.23,38.84A17.75,17.75,0,0,1,259.38,44"/></svg>