<svg id="Слой_3" data-name="Слой 3" xmlns="http://www.w3.org/2000/svg" viewBox="0 0 500 500"><defs><style>.cls-1{fill:#fbd994;}.cls-11,.cls-12,.cls-13,.cls-2{fill:none;}.cls-13,.cls-2,.cls-6{stroke:#6a8ed8;}.cls-11,.cls-12,.cls-2,.cls-5,.cls-6{stroke-linecap:round;}.cls-11,.cls-12,.cls-2,.cls-5{stroke-linejoin:round;}.cls-11,.cls-13,.cls-2,.cls-5,.cls-6{stroke-width:2.1px;}.cls-3{fill:#6a8ed8;}.cls-4{fill:#64b6f9;}.cls-5,.cls-6,.cls-7{fill:#fff;}.cls-11,.cls-12,.cls-5{stroke:#220676;}.cls-13,.cls-6{stroke-miterlimit:10;}.cls-8{fill:#ff7922;}.cls-9{fill:#f9d0c5;}.cls-10{fill:#ffb300;}.cls-12{stroke-width:1.8px;}.cls-14{fill:#220676;}.cls-15{fill:#0046e6;}</style></defs><rect class="cls-1" x="156.61" y="237.57" width="13.15" height="188.07"/><rect class="cls-1" x="401.89" y="237.57" width="13.15" height="188.07"/><rect class="cls-2" x="108.17" y="218.81" width="130.31" height="11.46" rx="3.94"/><path class="cls-2" d="M87.58,153.34h74.06a2.09,2.09,0,0,1,2,1.37l24.73,64.1-79-.06L85.62,156.13A2.08,2.08,0,0,1,87.58,153.34Z"/><path class="cls-1" d="M364.61,419.48a130.27,130.27,0,0,0-12.76-6.57,113.7,113.7,0,0,0-13.39-5,108.67,108.67,0,0,0-13.88-3.34c-1.17-.18-2.34-.4-3.52-.54l-3.54-.43c-2.37-.19-4.73-.42-7.15-.53a93.76,93.76,0,0,0-14.23.17,70.6,70.6,0,0,0-38.64,16.11,1.79,1.79,0,0,1-2.34-2.71A71.2,71.2,0,0,1,281,401.68c9.55-3.22,19.8-3.92,29.65-3.4,2.44.1,4.92.31,7.4.52l3.71.47c1.23.17,2.45.4,3.68.6a108,108,0,0,1,41.11,16.57,1.8,1.8,0,0,1-1.89,3.05Z"/><rect class="cls-1" x="296.1" y="302.09" width="13.85" height="100.89" transform="translate(606.05 705.07) rotate(180)"/><path class="cls-3" d="M250.91,424.83c0-6.13,3.15-11.1,7-11.29h4.49l-1.36.95c2.54,1.75,4.31,5.74,4.29,10.37s-1.81,8.63-4.38,10.36l1.38.94h-4.49v0C254,436,250.89,431,250.91,424.83Z"/><ellipse class="cls-4" cx="262.45" cy="424.85" rx="11.31" ry="7.23" transform="translate(-163.43 685.63) rotate(-89.78)"/><path class="cls-4" d="M376.23,425.59c0-6.2-3.49-11.22-7.75-11.4h-.4l-4.51,0,1.49,1c-2.78,1.79-4.7,5.82-4.67,10.51s2,8.72,4.84,10.47l-1.5.95h4.91v0C372.9,436.86,376.27,431.79,376.23,425.59Z"/><ellipse class="cls-3" cx="363.59" cy="425.65" rx="7.92" ry="11.44" transform="translate(-3.74 3.23) rotate(-0.51)"/><path class="cls-1" d="M313.09,403.14a135.53,135.53,0,0,0-20.25-.09,112.12,112.12,0,0,0-19.92,3.13c-3.23.84-6.51,1.82-9.66,2.94a67.55,67.55,0,0,0-9.15,4,62.78,62.78,0,0,0-15.87,11.85,2.34,2.34,0,0,1-3.35-3.26,67.56,67.56,0,0,1,17-12.77,72.58,72.58,0,0,1,9.76-4.25c3.32-1.19,6.63-2.19,10.06-3.09a112.83,112.83,0,0,1,20.77-3.28,137.19,137.19,0,0,1,21,.21,2.33,2.33,0,0,1-.38,4.65Z"/><path class="cls-1" d="M332.3,424.35a36.55,36.55,0,0,0-14.17-15.11A40.05,40.05,0,0,0,298,404a2.33,2.33,0,0,1-.08-4.66,43,43,0,0,1,11.69,1.31,40.92,40.92,0,0,1,26.86,21.58,2.33,2.33,0,0,1-4.16,2.1Z"/><path class="cls-3" d="M322.44,428.62c0-6.69,3.49-12.12,7.75-12.3h.4l4.51,0-1.49,1c2.78,1.93,4.7,6.28,4.67,11.34s-2,9.42-4.84,11.31l1.5,1L330,441h0C325.77,440.78,322.39,435.31,322.44,428.62Z"/><ellipse class="cls-4" cx="335.08" cy="428.68" rx="12.35" ry="7.92" transform="translate(-96.02 760.66) rotate(-89.59)"/><path class="cls-4" d="M248,428.37c0-6.54-3.74-11.86-8.35-12.05h-5.32l1.61,1c-3,1.87-5.11,6.12-5.09,11.07s2.15,9.21,5.19,11.06l-1.62,1h5.31C244.36,440.24,248,434.91,248,428.37Z"/><ellipse class="cls-3" cx="234.33" cy="428.39" rx="8.58" ry="12.07" transform="translate(-2.22 1.22) rotate(-0.3)"/><path class="cls-3" d="M370.66,154.22H309.6a4.81,4.81,0,0,0-4.75,4.11l-19,127.92H356.6l18.81-126.51A4.82,4.82,0,0,0,370.66,154.22Z"/><path class="cls-4" d="M347.57,286.25,364,159.74c.38-2.9-1.58-5.52-4.15-5.52H306.57a4.43,4.43,0,0,0-4.15,4.11l-16.6,127.92"/><rect class="cls-4" x="239.44" y="281.58" width="117.16" height="21.91" rx="5.76"/><rect class="cls-3" x="312.97" y="281.58" width="43.63" height="21.91" rx="5.76"/><path class="cls-5" d="M235.09,147.24a20.1,20.1,0,0,1,5-7.19l18.15,9.43-5,7.57Z"/><path class="cls-6" d="M257.86,150.45l-19.05-10.3a2.14,2.14,0,0,1-.87-2.9l18.43-34.08a2.17,2.17,0,0,1,1.27-1,2.5,2.5,0,0,1,1.64.17c1.32.54,5.54,2.81,11.1,6a21.33,21.33,0,0,0,4.81,15.76l-14.43,25.5C260.69,149.71,260.32,150.37,257.86,150.45Z"/><path class="cls-5" d="M246.05,110.46c.43-1.41,2.66-2.14,4.38-1.9,2.73.4,5,3.41,4.31,5.13-.52,1.29-2.68,1.72-4.2,1.49C248,114.8,245.51,112.25,246.05,110.46Z"/><path class="cls-5" d="M240.65,116.7c.18-1.46,2.24-2.57,4-2.62,2.76-.08,5.52,2.48,5.13,4.3-.29,1.37-2.34,2.16-3.88,2.2C243.27,120.64,240.42,118.56,240.65,116.7Z"/><path class="cls-5" d="M238.05,122.78c.4-1.41,2.62-2.18,4.34-2,2.74.36,5.06,3.33,4.4,5.06-.51,1.3-2.66,1.76-4.18,1.56C240,127.09,237.53,124.58,238.05,122.78Z"/><path class="cls-5" d="M235.77,129.88c.28-1.42,2.37-2.35,4.07-2.27,2.69.13,5.19,2.84,4.68,4.58-.38,1.31-2.45,1.93-3.94,1.85C238,133.91,235.41,131.67,235.77,129.88Z"/><path class="cls-5" d="M259,139.7c.73-1.28,3.06-1.5,4.69-.88,2.57,1,4.13,4.43,3.07,6-.8,1.15-3,1.09-4.43.53C259.88,144.35,258.05,141.33,259,139.7Z"/><path class="cls-7" d="M283.84,138.5c.36-3.2.71-6.39,1.06-9.59a12.58,12.58,0,0,1-4.94-1.69c-.67-.4-3.33-2.1-5.63-7A29.61,29.61,0,0,1,271.77,109a86,86,0,0,1,1.16-20.19,13.7,13.7,0,0,1,4-2.38,13.42,13.42,0,0,1,5.13-.84,28.41,28.41,0,0,0,6.5,8.33,29.35,29.35,0,0,0,16,6.94,4.49,4.49,0,0,1,2.62-2.62c2-.62,3.7.72,4.2,1.11,2.34,1.81,3,5.24,2.45,7.81-.74,3.54-3.94,6.37-8.08,7.17a110,110,0,0,0-6.65,18.31c-.84,3.19-1.5,6.25-2,9.14l-13.32-2.11Z"/><path class="cls-8" d="M234.42,145.24c3.07,1.33,6.33,2.91,9.72,4.76a123.7,123.7,0,0,1,11.62,7.24A83,83,0,0,1,263,151c4.63-3.57,15.06-11.47,30.29-14.86,4.39-1,16.53-3.68,29-.19,31.73,8.91,51.17,54.14,42.48,86.68a56.25,56.25,0,0,1-3.05,8.58l-26.94.6q-.63,8.94-1.25,17.88a125.14,125.14,0,0,1-36.2,1.9A175.55,175.55,0,0,1,272,249.83a177.67,177.67,0,0,1-18.48-3.62V199.15c-.64.7-9.24,9.75-20.95,7.62-10.24-1.86-15-10.85-15.81-12.38-7.74-15.21,4.77-33.64,7.81-38.1A55.66,55.66,0,0,1,234.42,145.24Z"/><path class="cls-9" d="M280.76,140.18a118.62,118.62,0,0,0-10.9,23.92c-6.55,20-6.25,37.47-5.72,56.58.18,6.25.63,15.17,1.91,25.91l33.72-.57a134.9,134.9,0,0,1-4.38-45.15A137.36,137.36,0,0,1,318.23,135a63.48,63.48,0,0,0-13.39-.66,65.61,65.61,0,0,0-14.19,2.42A76.21,76.21,0,0,0,280.76,140.18Z"/><path class="cls-10" d="M295.42,167.53l10.38.7,5-11.5h1.61l-.41,12h9.37a76.07,76.07,0,0,1,3.94-32.16,19.38,19.38,0,0,1,5.69,1.79,19.87,19.87,0,0,1,3.38,2.14c-.28-2.4-.67-5.81-1.17-9.9-2.47-20.46-3.34-24.3-4.86-28.39A46.81,46.81,0,0,0,321,88.66c-2.32-2.94-9.73-12-22.72-15.1-2.91-.69-10.8-2.45-19.34.76a19.88,19.88,0,0,0-9.38,6.33A18.53,18.53,0,0,0,266,89.13c-.47,8.85-.67,18.32-.47,28.36.2,10.54.83,20.45,1.71,29.65,1-.49,2.06-1,3.1-1.52,4.44-2.25,8.6-4.6,12.47-7l1.41-8.92a7.85,7.85,0,0,1-3.17-.56c-3-1.22-4.57-3.94-6.24-8.43-1.77-4.76-3.47-9.34-3.82-16.3a50.35,50.35,0,0,1,1.65-15.56,11.11,11.11,0,0,1,5.89-3.67,10.72,10.72,0,0,1,4.38-.1,25.89,25.89,0,0,0,5.33,7.7,27.36,27.36,0,0,0,16.13,7.48A4.35,4.35,0,0,1,306,98c2-1.28,4.82-.39,6.31.88,3.55,3,3,11.18-1.33,14.43a8.28,8.28,0,0,1-4.33,1.52c-1.06,2.48-2.5,6-4,10.39A119.68,119.68,0,0,0,296,152.81,102.23,102.23,0,0,0,295.42,167.53Z"/><path class="cls-11" d="M227.88,182.26c7.63-7.13,14.13-13.07,19.05-17.53,10.26-9.28,13.19-11.7,16.59-14.18A119.33,119.33,0,0,1,283.13,139"/><path class="cls-11" d="M254.26,178.7q-.31,6.41-.52,13c-.54,17.1-.42,33.6.21,49.42"/><path class="cls-11" d="M305.67,230.4A53.16,53.16,0,0,1,308,205l44.86-1.05"/><path class="cls-11" d="M335.63,204.32a67.71,67.71,0,0,1-7.86-18.12,68.85,68.85,0,0,1-.76-32"/><path class="cls-11" d="M279.45,178.32a20.57,20.57,0,0,0,2.92,8.64,21.68,21.68,0,0,0,12.06,9.14"/><path class="cls-8" d="M182.55,296.1c-.93-2.16-4.51-11.14-.42-20,5.49-11.85,20.2-13.43,23.48-13.78A35.17,35.17,0,0,1,221,264.2l-17.63,31.55Z"/><path class="cls-5" d="M93.9,401.12l63,24c1.66-3.59,4.08-8.76,7-14.94,8.15-16.93,12.22-25.4,17.1-34,7.06-12.51,9-13.33,26.67-39.82,6.11-9.14,11-16.68,14.1-21.55l5-44.14c-1.66-1-12.84-7.72-26.29-3.49-16.33,5.14-20.91,21.63-21.18,22.68l-32.21,94a58.61,58.61,0,0,1-21.32,6.33c-11.8,1.08-20-2.09-26.7,3.22A16.86,16.86,0,0,0,93.9,401.12Z"/><path class="cls-11" d="M147.61,384.11a113,113,0,0,1,12.09,4.35,110.34,110.34,0,0,1,11.92,5.92"/><path class="cls-11" d="M134.3,388.68a12.43,12.43,0,0,1-5.8-4.35c-2.32-3.3-3.13-8.25-1.57-9.24s5.57,1.86,7.62,5.14a13.21,13.21,0,0,1,1.82,7.88A11.18,11.18,0,0,1,132,382c-1.07-4.28.79-9.26,2.53-9.39s3.45,4.67,4,6.67a19,19,0,0,1,.41,8.06"/><path class="cls-11" d="M98.26,394.71q12.26,3.51,25.39,8c13.2,4.55,25.48,9.4,36.82,14.34"/><path class="cls-5" d="M231,442.2q18-6.61,36.68-14.18,17.42-7.06,33.77-14.27c-2.84-5-7.07-12.47-12.18-21.55-8.22-14.58-12.35-21.9-13.09-23.49-7.64-16.53-5.53-22.24-12.57-42.42a180.25,180.25,0,0,0-11.39-25.89Q293.7,282.93,292,274q-2.19-11.13-71.09-9.18c-5.05,2.25-15.06,7.7-19.21,18.3-6.24,15.94,3.74,29.85,4.39,30.72l53,84a77.55,77.55,0,0,1-13.2,14.89c-6.9,6-11.15,7.45-13.9,12.77C228.91,431.35,229.82,437.84,231,442.2Z"/><path class="cls-11" d="M259.05,397.82A82,82,0,0,1,270.53,391a83.28,83.28,0,0,1,14.85-5.61"/><path class="cls-5" d="M229.91,435.58c10-4.78,20.61-9.53,31.76-14.17,12.49-5.2,24.59-9.81,36.2-13.9"/><path class="cls-11" d="M250.77,407.2a12.31,12.31,0,0,1-7.24-.26c-3.79-1.38-7.28-5-6.57-6.69s5.64-1.66,9.2-.13a13.14,13.14,0,0,1,6,5.44,11.21,11.21,0,0,1-7.09-2.59c-3.32-2.9-4.64-8.05-3.28-9.14s5.5,1.86,7.09,3.19a18.92,18.92,0,0,1,4.94,6.38"/><path class="cls-10" d="M191.32,266.55c2.34-1.16,5.69-2.81,9.74-4.72,11-5.21,9.33-4.61,23.22-10.72,13.15-5.79,19.73-8.69,26-10.63a134.32,134.32,0,0,1,32.13-5.63c19.46-1,31.48,2.52,36.55,4.26,10.06,3.44,12.45,6.47,13.52,8.27,5.78,9.63-2.59,23.22-3.56,24.76a95.12,95.12,0,0,1-70.79,41.71l-6.78-15.22c-3.44-5.12-6.62-9.31-9.16-12.48a122.28,122.28,0,0,0-10.93-12.28c-3.83-3.69-6.94-6.69-10.11-8.54C211,259.42,197.65,263.9,191.32,266.55Z"/><path class="cls-8" d="M297.18,234.53a47.31,47.31,0,0,0,5.57,17.9c3.77,0,7.8-.09,12.07-.41a146.27,146.27,0,0,0,18.69-2.66,24.23,24.23,0,0,0-6.5-10.49C319.7,232.1,308.2,230.61,297.18,234.53Z"/><path class="cls-11" d="M284.65,129.68a91,91,0,0,0-1.29,11c-.48,8.64-.79,14.16,1.8,15.7,2.91,1.73,9-1.83,14.86-8"/><path class="cls-11" d="M272.52,89.32a82.82,82.82,0,0,0-1.14,12.29c-.08,5.16-.15,9.22,1.34,14.19,1.33,4.46,2.75,9.2,7.23,11.91,4.65,2.8,9.82,1.76,11.53,1.33"/><path class="cls-12" d="M284.15,98.88a25.12,25.12,0,0,1-3.88,13.46l4.19,2.1"/><path class="cls-11" d="M284.34,121.17a15.26,15.26,0,0,0,6.16-.76,15.43,15.43,0,0,0,6-3.75"/><path class="cls-11" d="M272.59,88.85a10.89,10.89,0,0,1,2.67-2.16,11.82,11.82,0,0,1,7.36-1.4,26.67,26.67,0,0,0,5,7.18,28.56,28.56,0,0,0,16.83,8,5.2,5.2,0,0,1,3.3-2.73c3.19-.6,5.54,3.41,5.65,3.62a9.09,9.09,0,0,1-2,10.86,8.92,8.92,0,0,1-5.2,2.09,119.88,119.88,0,0,0-6.86,18.74,121.74,121.74,0,0,0-4.29,35l11,.67c3.55-10.32,4.87-11.85,5.43-11.72s1,2-.19,12.1h10.38a79.47,79.47,0,0,1,3.54-32.26,23.42,23.42,0,0,1,4.27,1.33,23.89,23.89,0,0,1,5,2.83c-.18-3.17-.52-7.72-1.21-13.15-2.13-16.75-3.45-27.1-10-37-2.23-3.36-7.87-11.86-18.67-16.1-11.3-4.43-27.7-3.92-35.62,5.43-3.23,3.81-4.39,8.3-4.29,27.63.05,10.83.5,24.4,1.9,40.1"/><path class="cls-11" d="M295,302.89A95.43,95.43,0,0,0,328,273.58"/><path class="cls-11" d="M241.92,289.45a57.65,57.65,0,0,1,8.38,9A67.09,67.09,0,0,1,257.57,311a102.38,102.38,0,0,1,4.61,11.42"/><path class="cls-5" d="M280.86,218s-22.76,10.44-16.75,14.89S282.86,225,282.86,225"/><path class="cls-5" d="M304.85,219.6a61,61,0,0,1,.73-7.49,31.16,31.16,0,0,0-30.75,11h0s-13.91,13.63-6.78,15.87c3.41,1.07,9.45-5.15,13.5-10l23.68.13A62.35,62.35,0,0,1,304.85,219.6Z"/><rect class="cls-2" x="376.32" y="194.21" width="26.09" height="37.13" rx="2.9"/><path class="cls-13" d="M402.72,200.3v3.85c5.16,0,9.34,3.86,9.34,8.62s-4.18,8.63-9.34,8.63v3.85c7.46,0,13.51-5.59,13.51-12.48S410.18,200.3,402.72,200.3Z"/><path class="cls-13" d="M376.53,196.08a25.33,25.33,0,0,0,25.5-.33"/><path class="cls-2" d="M389.59,220.26a19.56,19.56,0,0,1-4.2-3.83c-1.62-2-3.95-5.56-3.09-6.5s4.37,1,4.53,1.14a10.89,10.89,0,0,1,2.5,1.94,11.77,11.77,0,0,1,3-3c.78-.53,2.94-2,3.66-1.42.93.76-.95,4.57-2.13,6.54A22.31,22.31,0,0,1,389.59,220.26Z"/><rect class="cls-14" x="88.55" y="230.27" width="329.58" height="9.97" rx="2.29"/><rect class="cls-10" x="95.03" y="237.57" width="13.15" height="205.71"/><rect class="cls-10" x="340.31" y="237.57" width="13.15" height="205.71"/><rect class="cls-15" x="88.55" y="230.27" width="270.89" height="9.97" rx="2.29"/></svg>